<?xml version="1.0" encoding="UTF-8"?>
<!DOCTYPE svg PUBLIC "-//W3C//DTD SVG 1.1//EN" "http://www.w3.org/Graphics/SVG/1.1/DTD/svg11.dtd">
<!-- Creator: CorelDRAW 2018 (64-Bit) -->
<svg xmlns="http://www.w3.org/2000/svg" xml:space="preserve" width="100mm" height="115mm" version="1.1" style="shape-rendering:geometricPrecision; text-rendering:geometricPrecision; image-rendering:optimizeQuality; fill-rule:evenodd; clip-rule:evenodd"
viewBox="0 0 10000 11500"
 xmlns:xlink="http://www.w3.org/1999/xlink">
 <defs>
  <style type="text/css">
   <![CDATA[
    .fil1 {fill:#FEFEFE}
    .fil3 {fill:#2B2A29}
    .fil0 {fill:#A78846}
    .fil2 {fill:#A98845}
   ]]>
  </style>
 </defs>
 <g id="Katman_x0020_1">
  <metadata id="CorelCorpID_0Corel-Layer"/>
  <path class="fil0" d="M1787.77 7579.6c-7.76,-287.67 13.11,-605.69 20.15,-896.4l59.39 -2636.31c3.38,-109.31 20.98,-94.6 102.03,-139.74 325.53,-181.32 2039.32,-1209.78 2120.71,-1232.51l58.08 2019.66c72.92,20.11 470.03,2.43 536.33,-18.48 30.78,-78.22 -6.14,-2808.57 -7.28,-2975.15 -77.47,6.07 -1506.38,829.61 -1721.4,941.47 -152.65,79.42 -1563.79,845.69 -1693.7,959.09l-18.34 4295.61c14.52,53.22 1486.31,853.85 1723.41,996.22l865.87 490.48c174.94,96.7 734.92,427.65 870.17,475.68 -10.05,-1019.1 -8.37,-2078.22 -32.76,-3092.2l-558.96 -6.59 36.71 2055.8c-80.6,-12.7 -2200.37,-1189.87 -2360.41,-1236.63z"/>
  <path class="fil1" d="M1787.77 7579.6c160.04,46.76 2279.81,1223.93 2360.41,1236.63l-36.71 -2055.8 558.96 6.59c24.39,1013.98 22.71,2073.1 32.76,3092.2 -135.25,-48.03 -695.23,-378.98 -870.17,-475.68l-865.87 -490.48c-237.1,-142.37 -1708.89,-943 -1723.41,-996.22l18.34 -4295.61c129.91,-113.4 1541.05,-879.67 1693.7,-959.09 215.02,-111.86 1643.93,-935.4 1721.4,-941.47 1.14,166.58 38.06,2896.93 7.28,2975.15 -66.3,20.91 -463.41,38.59 -536.33,18.48l-58.08 -2019.66c-81.39,22.73 -1795.18,1051.19 -2120.71,1232.51 -81.05,45.14 -98.65,30.43 -102.03,139.74l-59.39 2636.31c-7.04,290.71 -27.91,608.73 -20.15,896.4zm3583.37 -5907.98c96.3,14.32 1512.68,814.96 1715.15,929.46l1265.21 714.97c143.76,81.87 285.83,155.76 413.19,239.4l-4.08 691.5 -2851.4 -1582.54 2.22 2800.64 2856.84 -10.59 -2.38 570.11 -2857.05 9.41 4.11 3530.07 -568.13 311.11 26.32 -8203.54zm-4772.43 5522.59l7.1 1069.93c76.45,70.14 183.33,107.98 273.83,159.33l828.2 482.32c513.87,284.89 1121.65,657.33 1637.33,965.79l1105.95 650.04c77.21,51.14 180.32,114.97 270.36,161.88 353.14,184 206.72,225.7 560.87,17.94l1930.04 -1135.83c357.96,-215.77 738.02,-427.93 1094.15,-646.02 238.47,-146.04 852.19,-512.37 1113.37,-642.63 22.31,-646.65 7.5,-1529.28 9.26,-2200.57l8.22 -2874.38 -4251 -2422.8c-204.68,-111.41 -243.22,-34.53 -399.33,53.67 -122.32,69.12 -240.24,135.71 -353.87,204.52 -240.7,145.73 -448.94,264.28 -707.26,410.46 -474.39,268.46 -930.09,543.19 -1399.91,820.39 -226.96,133.91 -472.74,271.32 -703.42,413.31 -73.17,45.04 -1025.55,592.21 -1038.06,622.64 -16.01,38.93 -4.22,1556.03 -3.72,1670.34 3.2,739.18 16.72,1477.12 17.89,2219.67z"/>
  <path class="fil2" d="M598.71 7194.21c-1.17,-742.55 -14.69,-1480.49 -17.89,-2219.67 -0.5,-114.31 -12.29,-1631.41 3.72,-1670.34 12.51,-30.43 964.89,-577.6 1038.06,-622.64 230.68,-141.99 476.46,-279.4 703.42,-413.31 469.82,-277.2 925.52,-551.93 1399.91,-820.39 258.32,-146.18 466.56,-264.73 707.26,-410.46 113.63,-68.81 231.55,-135.4 353.87,-204.52 156.11,-88.2 194.65,-165.08 399.33,-53.67l4251 2422.8 -8.22 2874.38c-1.76,671.29 13.05,1553.92 -9.26,2200.57 -261.18,130.26 -874.9,496.59 -1113.37,642.63 -356.13,218.09 -736.19,430.25 -1094.15,646.02l-1930.04 1135.83c-354.15,207.76 -207.73,166.06 -560.87,-17.94 -90.04,-46.91 -193.15,-110.74 -270.36,-161.88l-1105.95 -650.04c-515.68,-308.46 -1123.46,-680.9 -1637.33,-965.79l-828.2 -482.32c-90.5,-51.35 -197.38,-89.19 -273.83,-159.33l-7.1 -1069.93zm-581.38 -3672.83l1.79 5092.05c404.46,218.46 850.14,476.66 1247.36,701.72 415.22,235.26 832.54,462.93 1244.05,705.11l2481.45 1415.71c70.35,14.79 248.76,-113.48 314.72,-151.92 107.36,-62.57 207.4,-108.2 318.8,-175.29 606.52,-365.21 1221.41,-684.59 1859.39,-1063.12 424.43,-251.83 838.91,-475.43 1243.87,-703.92 220.27,-124.29 1042.36,-579.1 1247.88,-715.36l2.79 -5520.17c1.26,-300.25 16.76,-222.34 -213.48,-358.06l-2877.75 -1658.25c-258.18,-148.98 -458.88,-257.5 -724.74,-408.35 -245.24,-139.15 -483.74,-281.2 -728.9,-421.16 -418.84,-239.12 -324.44,-296.38 -764.67,-39.69l-3590.11 2077.16c-242.29,138.56 -469.19,265.74 -719.52,415.55 -120.23,71.95 -327.63,154.32 -340.07,233.5 -19.26,122.65 -2.59,432.35 -2.86,574.49z"/>
  <path class="fil3" d="M5344.82 9875.16l568.13 -311.11 -4.11 -3530.07 2857.05 -9.41 2.38 -570.11 -2856.84 10.59 -2.22 -2800.64 2851.4 1582.54 4.08 -691.5c-127.36,-83.64 -269.43,-157.53 -413.19,-239.4l-1265.21 -714.97c-202.47,-114.5 -1618.85,-915.14 -1715.15,-929.46l-26.32 8203.54z"/>
 </g>
</svg>
