<?xml version="1.0" encoding="UTF-8"?>
<!DOCTYPE svg PUBLIC "-//W3C//DTD SVG 1.1//EN" "http://www.w3.org/Graphics/SVG/1.1/DTD/svg11.dtd">
<!-- Creator: CorelDRAW 2018 (64-Bit) -->
<svg xmlns="http://www.w3.org/2000/svg" xml:space="preserve" width="272mm" height="210mm" version="1.1" style="shape-rendering:geometricPrecision; text-rendering:geometricPrecision; image-rendering:optimizeQuality; fill-rule:evenodd; clip-rule:evenodd"
viewBox="0 0 27200 21000"
 xmlns:xlink="http://www.w3.org/1999/xlink">
 <defs>
  <style type="text/css">
   <![CDATA[
    .fil0 {fill:#FEFEFE}
    .fil3 {fill:#171716}
    .fil7 {fill:#A6894B}
    .fil2 {fill:#A78846}
    .fil5 {fill:#A98749}
    .fil4 {fill:#A98845}
    .fil6 {fill:#AA8949}
    .fil1 {fill:#AB9159}
   ]]>
  </style>
 </defs>
 <g id="Katman_x0020_1">
  <metadata id="CorelCorpID_0Corel-Layer"/>
  <path class="fil0" d="M11634.26 19717.32c33.42,55.93 121.2,557.58 127.29,651.93l-255.26 -3.19 127.97 -648.74zm-337.29 1028.05l135.03 1.82c16.8,-47.29 22.17,-77.2 28.64,-120.7 21.68,-145.85 -22.72,-158.82 326.49,-136.41l59.94 254.44 127.73 2.08c6.69,-63.35 -219.49,-1149.8 -255.63,-1228.55l-173.76 -2.97 -248.44 1230.29z"/>
  <path class="fil0" d="M12928.88 20302.14l-127.67 0.63c-2.83,70.92 5.26,190.03 -16.43,247.56 -24.73,65.58 -102.65,99 -183.03,66.65 -128.68,-51.78 -96.43,-303.68 -96.57,-453.65 -0.12,-132.52 -31.51,-405.48 53.57,-494.44 52.38,-54.76 152.57,-52.95 200.65,6.52 47.93,59.27 40.31,149.39 40.94,232.11l130.13 7.15c6.88,-254.71 -77.24,-491.62 -367.53,-402.87 -235.72,72.06 -186.33,375.77 -184.94,635.55 1.34,249.01 -43.87,562.57 213.51,606.58 294.3,50.33 370.44,-194.08 337.37,-451.79z"/>
  <path class="fil0" d="M14517.06 20616.32l-2.25 -973.97c339.69,-3.02 292.41,43.4 295.68,489.04 3.62,494.25 10.01,487.22 -293.43,484.93zm-134.92 129.07c580.03,38.13 562.61,-82.14 562.84,-614 0.23,-525.59 14,-655.15 -559.16,-615.31l-3.68 1229.31z"/>
  <path class="fil0" d="M15365.4 20743.34l507.9 1.68 -1.74 -124.28c-417.47,-3.61 -383.53,124.35 -366.88,-437.05l287.46 -13.49 10.67 -102.07 -296.14 -7.1 -4.6 -428 363.86 -4.38 2.21 -111.48 -502.92 -3.57 0.18 1229.74z"/>
  <path class="fil1" d="M103.37 20337.59c1443.48,12.14 2898.72,-5.03 4343.5,-12.87l4071.89 -12.61c44.52,0.21 298.47,25.43 200.86,-71.34 -34.39,-34.1 -6505.63,13.87 -7594.13,16.23l-960.47 2.03c-76.86,6.91 -70.01,0.48 -61.65,78.56z"/>
  <path class="fil1" d="M19140.45 20372.21l-2.04 75.29c162.77,17.44 3726.32,-13.16 4007.2,-13.87 663.88,-1.69 1329.49,-10.76 1996.03,-15.32l1485.04 -9.86c84.78,-0.44 170.85,-1.85 255.51,-0.57 87.57,1.34 195.75,37.9 197,-52.93 -87.17,-37.7 -3551.85,-8.09 -3965.51,-6.97l-2986.05 13.67c-203.91,0.01 -840.23,-21.98 -987.18,10.56z"/>
  <path class="fil0" d="M20502.07 13147.76c32.2,85.17 160.61,189.8 233.22,260.02 148.48,143.6 84.54,138.75 334.42,139.02 291.38,0.33 659.32,-16.08 932.1,46.68 523.7,120.49 865.76,450.8 912.11,1032.02 50.05,627.59 -321.54,994.9 -795.95,1139.07 -271.84,82.61 -572.9,93.86 -872.57,96.6 -258.15,2.36 -729.8,29.16 -964.88,-2.23 -17.7,-188.61 -2.57,-449.23 -2.84,-645.95 -0.29,-218.26 -0.61,-436.44 0.24,-654.72 1.37,-350.04 34.91,-301.32 -156.25,-504.62 -90.33,-96.06 -216.91,-263 -312.99,-338.53l-2.07 3988.09 467.76 -0.76 2.62 -1440.85 1623.1 -8.52 924.84 1308.5c125.54,182.59 125.23,166.22 613.94,144.77 -35.88,-100.64 -445.61,-634.82 -547.4,-785.95 -74.34,-110.36 -521.05,-729.76 -536.46,-781.22 181.2,-100.96 270.59,-69.74 552.03,-302.42 525.38,-434.33 618.22,-1351.96 275.48,-1921.96 -207.52,-345.13 -514.62,-584.48 -1013.28,-711.21 -452,-114.88 -1182.04,-57.85 -1667.17,-55.83z"/>
  <path class="fil0" d="M17832.95 17711.35c92.17,8.14 394.09,18.4 454.57,-8.23l8.74 -22.13c20.07,-90.1 7.88,-3182.15 8,-3394.19 0.11,-215.94 28.08,-984.63 -8.56,-1137.86l-457.45 -2.76 -5.3 4565.17z"/>
  <path class="fil0" d="M13208.86 17713.01l491.6 -1.43c-4.48,-236.31 44.49,-694.84 -66.69,-858.97 -69,-101.86 -338.64,-449.76 -427.1,-500.3l2.19 1360.7z"/>
  <path class="fil2" d="M10527.6 7629.95c-7.76,-287.67 13.11,-605.69 20.15,-896.4l59.39 -2636.31c3.38,-109.31 20.98,-94.6 102.03,-139.74 325.53,-181.32 2039.32,-1209.78 2120.71,-1232.51l58.08 2019.66c72.92,20.11 470.03,2.43 536.33,-18.48 30.78,-78.22 -6.14,-2808.57 -7.28,-2975.15 -77.47,6.07 -1506.38,829.61 -1721.4,941.47 -152.65,79.42 -1563.79,845.69 -1693.7,959.09l-18.34 4295.61c14.52,53.22 1486.31,853.85 1723.41,996.22l865.87 490.48c174.94,96.7 734.92,427.65 870.17,475.68 -10.05,-1019.1 -8.37,-2078.22 -32.76,-3092.2l-558.96 -6.59 36.71 2055.8c-80.6,-12.7 -2200.37,-1189.87 -2360.41,-1236.63z"/>
  <path class="fil2" d="M4736.21 13328.14l156.77 419.87c177.16,-37.43 493.23,-310.03 1266.48,-187.81 637.81,100.81 877.63,452.81 1017.97,498.84 67.86,-50.68 259.95,-223.72 294.64,-299.21 -138.98,-251.84 -805.26,-563.09 -1195.85,-630.08 -503.09,-86.28 -1168.42,-25.35 -1540.01,198.39z"/>
  <path class="fil3" d="M10527.6 7629.95c160.04,46.76 2279.81,1223.93 2360.41,1236.63l-36.71 -2055.8 558.96 6.59c24.39,1013.98 22.71,2073.1 32.76,3092.2 -135.25,-48.03 -695.23,-378.98 -870.17,-475.68l-865.87 -490.48c-237.1,-142.37 -1708.89,-943 -1723.41,-996.22l18.34 -4295.61c129.91,-113.4 1541.05,-879.67 1693.7,-959.09 215.02,-111.86 1643.93,-935.4 1721.4,-941.47 1.14,166.58 38.06,2896.93 7.28,2975.15 -66.3,20.91 -463.41,38.59 -536.33,18.48l-58.08 -2019.66c-81.39,22.73 -1795.18,1051.19 -2120.71,1232.51 -81.05,45.14 -98.65,30.43 -102.03,139.74l-59.39 2636.31c-7.04,290.71 -27.91,608.73 -20.15,896.4zm3583.37 -5907.98c96.3,14.32 1512.68,814.96 1715.15,929.46l1265.21 714.97c143.76,81.87 285.83,155.76 413.19,239.4l-4.08 691.5 -2851.4 -1582.54 2.22 2800.64 2856.84 -10.59 -2.38 570.11 -2857.05 9.41 4.11 3530.07 -568.13 311.11 26.32 -8203.54zm-4772.43 5522.59l7.1 1069.93c76.45,70.14 183.33,107.98 273.83,159.33l828.2 482.32c513.87,284.89 1121.65,657.33 1637.33,965.79l1105.95 650.04c77.21,51.14 180.32,114.97 270.36,161.88 353.14,184 206.72,225.7 560.87,17.94l1930.04 -1135.83c357.96,-215.77 738.02,-427.93 1094.15,-646.02 238.47,-146.04 852.19,-512.37 1113.37,-642.63 22.31,-646.65 7.5,-1529.28 9.26,-2200.57l8.22 -2874.38 -4251 -2422.8c-204.68,-111.41 -243.22,-34.53 -399.33,53.67 -122.32,69.12 -240.24,135.71 -353.87,204.52 -240.7,145.73 -448.94,264.28 -707.26,410.46 -474.39,268.46 -930.09,543.19 -1399.91,820.39 -226.96,133.91 -472.74,271.32 -703.42,413.31 -73.17,45.04 -1025.55,592.21 -1038.06,622.64 -16.01,38.93 -4.22,1556.03 -3.72,1670.34 3.2,739.18 16.72,1477.12 17.89,2219.67z"/>
  <path class="fil0" d="M9700.4 14460.12c82.3,-114.13 301.45,-738.33 385.12,-813.4 135.27,339.08 1047.55,2320.48 1063.59,2450.64l-2163.36 -0.3c28.34,-153.39 186.03,-409.55 241.28,-560.4 43.29,-118.18 -63.78,-283.78 -134.44,-433.99 -25.97,-55.19 -36.9,-94.32 -78.82,-128.74 -57.61,78.5 -117.06,234.73 -161.93,332.49 -171.17,372.95 -1094.81,2356.7 -1095.95,2405.89l485.57 2.14 281.66 -612.39c57.17,-120.02 224.98,-534.9 283.06,-608.32l2537.52 -3.35c81.54,168.84 507.58,1170.53 551.41,1220.15l495.92 2.05c-6.99,-97.03 -916.46,-2029.6 -1031.98,-2273.71 -100.28,-211.92 -979.87,-2092.86 -1048.97,-2288.69l-465.98 -0.58c-52.05,67.12 -252.81,530.16 -304.69,641.23 -119.29,255.43 -53.92,257.4 110.08,595l50.91 74.28z"/>
  <path class="fil0" d="M14091.65 16106.8l392.2 -389.7c48.55,-49.81 77.08,-103.28 134.75,-140.15 82.07,48.18 553.12,631.76 662.56,746.12l1199.98 1371.69c71.15,37.68 462.35,16.5 568.21,10.88 -32.01,-70.14 -917.52,-1106.31 -1040.98,-1247.45 -63.88,-73.03 -1028.87,-1190.5 -1054.88,-1245.2l1951.41 -2062.15c-128,-4.65 -257.88,-3.01 -386.19,-5.31 -181.92,-3.27 -183.12,29.21 -272.35,118.21 -67.57,67.4 -117.21,129.38 -184.81,198.5 -67.79,69.32 -125.12,125.48 -199.35,199.82 -135.13,135.32 -234.67,260.09 -383.8,398.94l-1339.07 1391.21c-65.02,72.16 -121.71,140.93 -190.67,208.6 -131.94,129.47 -152.5,90.68 43.17,338.73l99.82 107.26z"/>
  <path class="fil4" d="M9338.54 7244.56c-1.17,-742.55 -14.69,-1480.49 -17.89,-2219.67 -0.5,-114.31 -12.29,-1631.41 3.72,-1670.34 12.51,-30.43 964.89,-577.6 1038.06,-622.64 230.68,-141.99 476.46,-279.4 703.42,-413.31 469.82,-277.2 925.52,-551.93 1399.91,-820.39 258.32,-146.18 466.56,-264.73 707.26,-410.46 113.63,-68.81 231.55,-135.4 353.87,-204.52 156.11,-88.2 194.65,-165.08 399.33,-53.67l4251 2422.8 -8.22 2874.38c-1.76,671.29 13.05,1553.92 -9.26,2200.57 -261.18,130.26 -874.9,496.59 -1113.37,642.63 -356.13,218.09 -736.19,430.25 -1094.15,646.02l-1930.04 1135.83c-354.15,207.76 -207.73,166.06 -560.87,-17.94 -90.04,-46.91 -193.15,-110.74 -270.36,-161.88l-1105.95 -650.04c-515.68,-308.46 -1123.46,-680.9 -1637.33,-965.79l-828.2 -482.32c-90.5,-51.35 -197.38,-89.19 -273.83,-159.33l-7.1 -1069.93zm-581.38 -3672.83l1.79 5092.05c404.46,218.46 850.14,476.66 1247.36,701.72 415.22,235.26 832.54,462.93 1244.05,705.11l2481.45 1415.71c70.35,14.79 248.76,-113.48 314.72,-151.92 107.36,-62.57 207.4,-108.2 318.8,-175.29 606.52,-365.21 1221.41,-684.59 1859.39,-1063.12 424.43,-251.83 838.91,-475.43 1243.87,-703.92 220.27,-124.29 1042.36,-579.1 1247.88,-715.36l2.79 -5520.17c1.26,-300.25 16.76,-222.34 -213.48,-358.06l-2877.75 -1658.25c-258.18,-148.98 -458.88,-257.5 -724.74,-408.35 -245.24,-139.15 -483.74,-281.2 -728.9,-421.16 -418.84,-239.12 -324.44,-296.38 -764.67,-39.69l-3590.11 2077.16c-242.29,138.56 -469.19,265.74 -719.52,415.55 -120.23,71.95 -327.63,154.32 -340.07,233.5 -19.26,122.65 -2.59,432.35 -2.86,574.49z"/>
  <path class="fil0" d="M14084.65 9925.51l568.13 -311.11 -4.11 -3530.07 2857.05 -9.41 2.38 -570.11 -2856.84 10.59 -2.22 -2800.64 2851.4 1582.54 4.08 -691.5c-127.36,-83.64 -269.43,-157.53 -413.19,-239.4l-1265.21 -714.97c-202.47,-114.5 -1618.85,-915.14 -1715.15,-929.46l-26.32 8203.54z"/>
  <path class="fil5" d="M3400.46 15420.59c-0.53,792.06 312.62,1295.74 691.33,1680.5 339.67,345.1 1003.77,716.32 1730.16,649.48 -0.39,-69.5 -110.5,-318.54 -156.2,-402.27 -92.12,-168.83 -416.92,54.37 -1074.21,-443.2 -702.66,-531.91 -896.92,-1524.26 -493.21,-2343.91 148.95,-302.42 213.92,-181.54 71.39,-491.36 -36.9,-80.21 -71.75,-188.81 -122.06,-245.32 -136.12,78.84 -376.96,450.88 -462.17,654.85 -124.9,299.02 -184.77,558.69 -185.03,941.23z"/>
  <path class="fil0" d="M13681.54 15588.72l2.2 -2438.8 -476.26 -1.89c-5.99,479.28 -0.49,963.52 1.41,1442.18 1.5,378.32 -43.82,365.38 134.16,589.03 57.54,72.32 107.07,132.7 166.55,200.61 37.9,43.27 118.59,177.23 171.94,208.87z"/>
  <path class="fil6" d="M6508.37 17193.13c4.3,64.76 117.84,349.76 158.08,417.11 152.75,-22.5 707.74,-359.33 802.18,-528.9 -25.21,-70.91 -229.08,-276.85 -291.2,-300.43 -110.33,71.37 -207.07,156.3 -314.22,225.41 -114.49,73.86 -251.51,118.81 -354.84,186.81z"/>
  <path class="fil0" d="M13611.7 19701.51c41.23,55.45 130.38,564.9 131.49,668.28l-244.67 -0.64 113.18 -667.64zm-316.39 1047.38l118.3 -1.82 61.66 -254.89c466.19,-37.78 255.08,58.53 360.89,250.43l128.03 1.75 -240.61 -1228.8 -185.46 -3.6c-32.68,80.45 -247.25,1170.05 -242.81,1236.93z"/>
  <path class="fil0" d="M16380.79 20381.39l-107.33 -3.22c-43.57,238.45 87.28,429.97 338.56,373.83 203.58,-45.48 251.56,-318.5 138.8,-501.07 -88.29,-142.94 -299.11,-230.52 -344.5,-388.57 -31.33,-109.09 13.31,-216.33 102.72,-234.86 134.96,-27.96 165.5,80.39 176.77,193.75l111.39 3.71c25.4,-231.65 -147.65,-397.2 -377.42,-303.34 -181.34,74.08 -194.93,367.89 -68.17,521.44 98.54,119.35 306.51,216.65 320.47,394.93 9.21,117.6 -41.25,207.73 -166.75,188.7 -120.78,-18.31 -106.78,-129.59 -124.54,-245.3z"/>
  <path class="fil7" d="M10474.37 20745.86c224.53,19 95.62,-56.17 133.48,-535.94l267.59 -3.09 5.41 -114.28c-75.27,-25.61 -190.46,-6.55 -276.67,-19.13l-1.75 -429.78c74.17,-18.53 156.88,-9.57 232.72,-8.16 125.46,2.33 136.01,12.07 120.58,-120.18l-486.6 -5.32c-16.96,114.6 -16.3,1145.54 5.24,1235.88z"/>
 </g>
</svg>
