<?xml version="1.0" encoding="UTF-8"?>
<!DOCTYPE svg PUBLIC "-//W3C//DTD SVG 1.1//EN" "http://www.w3.org/Graphics/SVG/1.1/DTD/svg11.dtd">
<!-- Creator: CorelDRAW 2018 (64-Bit) -->
<svg xmlns="http://www.w3.org/2000/svg" xml:space="preserve" width="270mm" height="208mm" version="1.1" style="shape-rendering:geometricPrecision; text-rendering:geometricPrecision; image-rendering:optimizeQuality; fill-rule:evenodd; clip-rule:evenodd"
viewBox="0 0 27000 20800"
 xmlns:xlink="http://www.w3.org/1999/xlink">
 <defs>
  <style type="text/css">
   <![CDATA[
    .fil0 {fill:#2B2A29}
    .fil9 {fill:#9B855B}
    .fil4 {fill:#9C8454}
    .fil5 {fill:#A38B5B}
    .fil3 {fill:#A68645}
    .fil2 {fill:#A88645}
    .fil1 {fill:#A88645}
    .fil6 {fill:#AA8942}
    .fil7 {fill:#AA8945}
    .fil8 {fill:#BAC0C0}
   ]]>
  </style>
 </defs>
 <g id="Katman_x0020_1">
  <metadata id="CorelCorpID_0Corel-Layer"/>
  <g id="_1312344400464">
   <path class="fil0" d="M8879.6 3161.3l2.08 5448.2c188.1,89.53 959.55,537.5 1188.05,668.66 777.97,446.55 1618.29,899.23 2383.2,1352.79 112.03,66.43 1159.62,671.81 1188.9,675.49 58.74,7.41 2127.87,-1203.13 2368.94,-1336.11l1191.19 -677.65c110.47,-63.21 1120.64,-620.05 1185.56,-682.64l-0.78 -5475.75c-102.28,-91.46 -995.95,-590.8 -1175.08,-692.95 -395.65,-225.62 -787.47,-453.93 -1185.69,-682.66l-1487.92 -847.25c-142.13,-84.35 -843.13,-506.74 -912.93,-494.59l-4745.52 2744.46z"/>
   <path class="fil0" d="M14416.63 20494.28l-4.82 -973.16c339.55,-20.35 293.86,39.04 295.4,488.24 1.25,364.24 54.81,534.88 -290.58,484.92zm-127.56 124.34c579.2,48.39 541.03,-91.76 545.05,-609.26 4.29,-552.86 15.84,-624.75 -545.34,-609.3 -16.13,66.18 -15.54,1147.61 0.29,1218.56z"/>
   <path class="fil0" d="M11574.61 19550.47l124.12 702.56 -265.69 -4.56 141.57 -698zm-337.07 1065.27l132.31 2.98 40.47 -255.2 314.6 -2.57 49.28 247.65 129.31 10.33c-32.47,-162.91 -203.96,-1153.21 -251.89,-1200.67 -33.1,-30.89 -122.79,-23.83 -179.85,-15.13l-234.23 1212.61z"/>
   <path class="fil0" d="M13404.51 20250.27c10.76,-112.2 42.13,-240.56 62.04,-353.98 12.29,-69.95 33.18,-292.62 68.84,-325.5l133.06 679.58 -263.94 -0.1zm-196.21 366.53l104.49 2.65c42.42,-71.53 45.88,-114.55 64.4,-256.93l313.79 3.26 51.11 252.01 133.76 -1.05 -244.93 -1209.69c-246.83,-10.01 -181.29,-88.18 -303.6,582.02 -36.61,200.57 -90.57,428.36 -119.02,627.73z"/>
   <path class="fil0" d="M12844.32 20182.2l-114.62 -3.68c-22.2,154.17 10.34,399.51 -205.22,320.42 -133.45,-48.97 -92.87,-303.4 -93.45,-456.2 -0.47,-121.71 -26.81,-424.82 47.92,-499.87 64.76,-65.03 162.98,-37.32 202.28,13.09 43.68,56.01 34.07,163.23 47.7,234.87l118.31 -0.48c34.93,-313.36 -148.45,-465 -377.25,-391.14 -226.47,73.1 -170.89,384.34 -170.32,626.84 0.61,253.14 -35.62,548.33 198.62,597.74 292.11,61.62 387.1,-177.26 346.03,-441.59z"/>
   <path class="fil0" d="M16269.99 20252.03l-125.72 2.34c-2.74,229.13 87.87,429.19 351.19,368.42 189.97,-43.83 236.35,-332.98 133.12,-490.9 -90.63,-138.65 -305.16,-234.63 -341.68,-393.72 -28.28,-123.18 15.24,-229.88 130.25,-232.3 140.71,-2.97 126.11,102.05 159.71,209.58l96.96 -0.34c44.75,-222.21 -132.78,-393.22 -363.84,-312.02 -185.28,65.11 -198.85,346.55 -90.39,503.71 85.33,123.63 320.47,216.33 332.04,403.1 7.46,120.45 -37.03,214.58 -164.55,197.23 -118.49,-16.12 -118.76,-130.59 -117.09,-255.1z"/>
   <path class="fil0" d="M15260.41 19859.16l-2.06 759.69 506.39 -2.87 1.28 -108.43 -357.3 -7.65c-28.14,-67.29 -13.18,-351.74 -8.19,-448.41l286.21 -1.74 5.92 -99.39 -292.18 -11.97 -5.84 -424.59c67.6,-2.4 127.62,-2.84 187.89,-2.2l131.46 -4.11c33.98,-7.68 20.92,-3.21 40.44,-15.48l-0.21 -89.22 -497.02 -3.91 3.21 460.28z"/>
   <path class="fil1" d="M136.11 20176.25c23.82,53.2 -8.24,19.39 43.29,38.83l8412.35 -24.43c59.82,0.37 116.58,17.8 105.21,-46.7 -11.61,-65.84 -68.97,-35.3 -240.56,-34.2 -89.01,0.57 -178.01,1.12 -267.02,1.38l-7994.43 33.37c-78.61,13.19 -24.27,-19.28 -58.84,31.75z"/>
   <path class="fil1" d="M18976.62 20276.38c27.48,61.95 -54.42,44.21 210.61,43.13l7242.9 -32.45c83.33,-0.28 167.08,-0.35 250.41,0.09 94.07,0.5 177.26,27.91 195.29,-44.15 -53.23,-39.68 -3583.2,-15.56 -3950.33,-15.09l-3904.55 16.16c-49.44,16.12 -19.97,-10.42 -44.33,32.31z"/>
   <path class="fil2" d="M4332.42 17198.34c118.16,-32.38 339.47,200.56 549.88,241.9l224.35 60.44c-87.19,10.4 11.33,-61.31 -84.24,-1.25 103.76,13.52 118.59,77.8 295.95,89.75 115.4,7.77 291.34,15.83 403.81,3.26 -12.94,-101.85 -63.96,-181.78 -97.41,-247.35 -57.63,-112.97 -47.1,-75.55 -188.31,-103.24 -336.63,-66.01 -184.5,-9.84 -490.16,-140.69 -77.59,-33.22 -124.39,-83.73 -206.45,-114.43 -89.42,-33.45 -218.48,-129.08 -255.46,-160.55l-26.9 -32.49c-70.61,-81.91 -118.57,-157.9 -196.92,-174.42 -28.36,-5.99 -11.03,31.79 -24.12,-14.49 -59.22,-34.05 -10.75,-48.16 -58.82,-127.14 -70.93,-116.55 -71.25,-88.82 -148.56,-257.15l-45.31 -66.22c-4.5,-109.09 -63.92,-239.04 -95.33,-372.05 -65.19,-276.07 -45.2,-580.62 4.92,-861.72l69.09 -272.16c39.91,-87.22 0.9,-44.87 74.16,-62.72 26.56,-23.82 191.5,-316.53 220.65,-367.23 -51.96,-150.01 -156.8,-292.3 -199.24,-456.5 -4.16,2.77 -10.15,2.15 -12.18,8.75l-73.82 69.22c-210.22,235.84 -280.42,337.46 -411.85,674.37 -253.56,649.98 -182.66,1461.67 174.6,2038.86 85.71,138.47 449.34,613.36 597.67,645.25z"/>
   <path class="fil2" d="M6471.54 17105.94l159.88 387.92c14.3,22.33 11.68,18.5 22.6,30.64 257.14,-123.92 665.45,-341.13 788.05,-535.79 -31.5,-67.36 -224.81,-241.98 -287.57,-297.02 -145.16,69.75 -255.95,262.51 -682.96,414.25z"/>
   <path class="fil0" d="M20131.9 15776.93c-17.89,-131.31 -6.49,-1080.05 -6.01,-1291.52 0.15,-63.46 7.74,-265.82 -6.41,-314.46l-459.41 -521.44 -2.22 3956.79 469.41 11.07 -2.36 -1331.27c-0.7,-96.71 -16.17,-108.08 78.33,-110.25l1520.68 -4.59c56.28,28.51 985.18,1424.53 1034.7,1443.69l499.88 3.49c-166.82,-260.86 -353.56,-522.4 -544.37,-769.06l-535.29 -778.55c66.1,-60.07 652.38,-191.44 899.62,-799.17 185.06,-454.89 154.02,-1005.64 -78.4,-1411.26 -187.46,-327.15 -543.99,-592.56 -999.54,-702.51 -437.79,-105.65 -1183.15,-71.59 -1670.38,-63.98 34.39,69.25 173.05,190.43 233.72,248.9 151.68,146.18 56.23,151.28 325.55,149.02 284.26,-2.4 669.81,-13.25 931.06,45.35 508.82,114.11 875.28,447.77 907.68,1014.47 35.29,617.24 -301,994.92 -784.08,1138.94 -268.85,80.15 -550.8,92.1 -854.32,91.67 -241.97,-0.33 -747.51,29.14 -957.84,-5.33z"/>
   <polygon class="fil0" points="17696.09,17616.35 18168.48,17615.22 18168.86,13097.63 17697.41,13092.23 "/>
   <path class="fil0" d="M13599.37 15524.49l-0.44 -2428.32 -487.33 -2.46c13.59,484.3 6.39,975.42 5.59,1458.45 -0.88,532.42 -43.36,289.98 390.68,872.89 45.45,61.03 40.02,66.99 91.5,99.44z"/>
   <path class="fil0" d="M13118.53 17614.48l482.6 1.52c13.72,-132.67 3.76,-325.82 4.08,-460.4 0.83,-355.09 15.39,-307.33 -273.58,-652.9 -54.4,-65.05 -145.4,-199.77 -214.32,-243.53l1.22 1355.31z"/>
   <path class="fil0" d="M9641.3 14411.48c88.71,-126.86 297.65,-730.41 384.57,-830.5 91.89,209.02 173.29,396.47 262.91,607.51 90.36,212.78 182.14,403.3 273.05,611.49 69.37,158.84 519.78,1147.64 530.04,1216.98l-2165.06 1.18c17.68,-69.72 87.49,-201.12 120.9,-273.63 193.93,-420.94 167.95,-335.79 61.28,-577.67 -38.58,-87.48 -83.48,-204.5 -135.24,-280.11 -39.23,41.02 -852.6,1862.34 -939.56,2047.12 -53.52,113.71 -289.24,595.8 -308.41,683.58l478.01 0.22c47.27,-84.98 90.44,-200.34 134.02,-295.9l420.78 -913.09 2521.48 -3.43c34.44,101.01 91.39,204.16 131.67,298.5l404.05 913.44 492.84 0.03c-47.21,-189.88 -1314.51,-2877.89 -1537.35,-3376.95 -90.46,-202.59 -165.12,-368.04 -254.39,-563.6 -79.81,-174.81 -200.43,-408.73 -253.7,-582.61 -95.93,-3.27 -192.11,-0.3 -288.15,-0.7 -276.48,-1.13 -155.28,-51.03 -417.69,489.61 -31.31,64.51 -53.58,125.52 -87.78,197.66 -43.82,92.44 -69.78,119.72 -19.87,229.85 29.27,64.59 156.63,363.68 191.6,401.02z"/>
   <path class="fil0" d="M13746.87 15703.68c46.62,109.68 167.34,225.19 228.24,323.71 53.51,-19.83 234,-213.55 282.57,-263.68 61.74,-63.72 210.58,-237.62 273.41,-263.74 55.48,48.7 78.67,93.33 126.62,144.01l396.47 454.27c291.13,342.16 795.25,886.69 1056.55,1213.48 355.36,444.44 201.02,275.73 820.82,307.15 -58.85,-108.28 -903.46,-1090.89 -1038.96,-1240.85 -89.86,-99.45 -170.65,-209.61 -260.33,-307.1 -170.99,-185.89 -353.89,-426.62 -518.56,-615.98 -59.51,-68.43 -231.21,-248.34 -267.22,-318.69l968.66 -1019.25c178.1,-182.83 305.84,-310.22 484.95,-499.42 58.96,-62.27 446.04,-442.87 484.57,-520.42 -115.54,-6.96 -234.95,-4.64 -351.08,-5.6 -223.41,-1.84 -145.56,-43.11 -442.02,267.7 -310.35,325.39 -2206.88,2270 -2244.69,2344.41z"/>
   <path class="fil3" d="M4735.24 13283.82c12.8,79.22 119.01,318.01 154.63,395.21 78.65,-7.16 182.05,-67.62 261.2,-94.56 339.05,-115.43 622.8,-142.16 986.43,-82.21 635.67,104.79 878.8,443.42 1000.49,506.6 60.24,-24.79 266.29,-245.9 312.63,-308.55 -93.81,-116.64 -363.86,-302.38 -513.24,-383.06 -195.62,-105.65 -418.71,-185.72 -668.26,-232.73 -294.46,-55.47 -544.05,-49.97 -846.49,-15.9 -186.92,21.06 -572.96,113.16 -687.39,215.2z"/>
   <path class="fil4" d="M4332.42 17198.34c33.01,48.95 81.7,70.84 136.26,106.69 52.36,34.39 103.51,61.12 160.62,91.03 91.79,48.08 228.64,105.26 338.81,144.95 197.89,71.3 605.05,147.05 845.26,109.74 -2.92,-66.3 -158.08,-383.97 -196.48,-439.97 -373.57,-58.27 -561.63,-91.02 -840.57,-263.81 -481.99,-298.58 -825.8,-767.9 -875.69,-1359.44 -14.18,-168.07 -11.3,-380.34 11.12,-547.3 23.71,-176.48 87.35,-303.01 124.84,-454.61 -73.26,17.85 -34.25,-24.5 -74.16,62.72l-69.09 272.16c-50.12,281.1 -70.11,585.65 -4.92,861.72 31.41,133.01 90.83,262.96 95.33,372.05l45.31 66.22c77.31,168.33 77.63,140.6 148.56,257.15 48.07,78.98 -0.4,93.09 58.82,127.14 13.09,46.28 -4.24,8.5 24.12,14.49 78.35,16.52 126.31,92.51 196.92,174.42l26.9 32.49c36.98,31.47 166.04,127.1 255.46,160.55 82.06,30.7 128.86,81.21 206.45,114.43 305.66,130.85 153.53,74.68 490.16,140.69 141.21,27.69 130.68,-9.73 188.31,103.24 33.45,65.57 84.47,145.5 97.41,247.35 -112.47,12.57 -288.41,4.51 -403.81,-3.26 -177.36,-11.95 -192.19,-76.23 -295.95,-89.75 95.57,-60.06 -2.95,11.65 84.24,1.25l-224.35 -60.44c-210.41,-41.34 -431.72,-274.28 -549.88,-241.9z"/>
   <path class="fil5" d="M10405.08 20613.18l135.07 4.06 2.11 -535.66c113.91,-2.53 217.29,20.16 279.27,-22.15l-4.53 -102.13 -271.37 2.61 -1.33 -446.29 343.22 -1.94 -1.38 -109.62 -472.5 -4.02c-22.73,92.05 -20.84,1080.63 -8.56,1215.14z"/>
   <g>
    <path class="fil6" d="M9273.79 3385.51c169,-86.11 357.56,-205.99 538.13,-310.89 1069.33,-621.21 2199.55,-1310.92 3265.9,-1907.59l549.95 -320.48c98.77,-42.27 468.83,198.26 569.38,255.23l1096.44 622.05c180.62,106.59 373.38,223.19 549.88,318.96 363.14,197.03 722.07,409.44 1096.9,621.33 183.56,103.77 378.86,203.85 553.5,314.23 175.69,111.05 378.47,207.79 542.86,325.63l-5.84 5008.9 -1476.46 869.07c-256.89,143.47 -477.41,288.37 -734.34,433.73l-1851.29 1086.04c-180.37,110.14 -274.69,199.29 -388.14,127.32 -235.2,-149.21 -488.95,-279.58 -736.17,-431 -473.76,-290.19 -1025.13,-592.05 -1481.49,-871.72 -243.05,-148.95 -487.88,-302.85 -734.66,-434.69l-1298.13 -754.11c-50.53,-44.33 -31.35,-174.42 -32.09,-260.57 -6.73,-784.19 -8.07,-1568.85 -10.97,-2353.11 -2.88,-779.34 -20.69,-1558.29 -13.36,-2338.33zm-556.38 -370.91l2.15 5645.89c194.93,92.78 994.36,557.01 1231.16,692.92 806.2,462.75 1677,931.86 2469.67,1401.87 116.09,68.84 1201.7,696.19 1232.03,700.01 60.87,7.67 2205.08,-1246.79 2454.89,-1384.59l1234.42 -702.24c114.48,-65.5 1161.3,-642.55 1228.57,-707.41l-0.81 -5674.43c-105.98,-94.78 -1032.08,-612.24 -1217.71,-718.1 -410,-233.8 -816.04,-470.4 -1228.71,-707.43l-1541.91 -877.99c-147.29,-87.4 -873.72,-525.12 -946.05,-512.53l-4917.7 2844.03z"/>
    <path class="fil7" d="M13347.84 8978.05c-32.44,-36.43 -14.89,18.52 -41.17,-70.13l-38.5 -2036.72c-102.96,-14.39 -363.14,-22.12 -457.34,3.8 -53.62,151.24 76.83,1740.34 19.44,2019.69 -53.83,15 -77.6,15.53 -182.15,-55.78 -51.22,-34.95 -25.09,14.39 -36.15,-43.75 -50.11,-64.02 -2101.4,-1134.18 -2140.47,-1168.81l74.25 -3571.4 1105.7 -642.66c169.37,-96.27 1002.68,-612.94 1104.41,-637.29l55.17 1996.72c114.8,21.37 397.54,1.89 520.76,-8.89l12.19 -2954.08c-101.64,19.01 -345.1,173.64 -445.41,229.13l-1263.66 706.34c-189.66,106.01 -1565.42,849.91 -1692.64,939.61l-9.18 4295.28c169.27,72.75 631.94,352.97 855.27,469.87 280.12,146.63 570.43,333.66 842.35,476.44 307.54,161.48 547.67,321.27 838.35,480.47 140.88,77.17 781.15,454.7 884.83,467.75l-6.05 -895.59z"/>
    <path class="fil8" d="M13996.93 9902.72c95.5,-36.49 192.09,-106.53 284.55,-155.45 81.35,-43.03 229.16,-106.59 274.89,-185.03l-3.59 -3462.67 2818.99 -8.05 2.33 -546.64c-277.57,9.13 -2749.15,20.42 -2803.32,-9.99 -34.36,-32.28 -16.96,-1791.99 -17.59,-2080.71 -0.45,-210.53 -16.23,-493.57 1.72,-695.26l686.29 386.09c238.33,136.03 468.23,260.16 707.16,394.7 113.72,64.03 1337.08,766.42 1429.27,794.8l-2.49 -680.07c-89.55,-83.81 -1529.05,-873.47 -1673.28,-954.22 -176.35,-98.74 -1618.03,-921.83 -1677.31,-921.2l-27.62 8123.7z"/>
    <path class="fil9" d="M12611.97 8795.16c11.06,58.14 -15.07,8.8 36.15,43.75 104.55,71.31 128.32,70.78 182.15,55.78 57.39,-279.35 -73.06,-1868.45 -19.44,-2019.69 94.2,-25.92 354.38,-18.19 457.34,-3.8l38.5 2036.72c26.28,88.65 8.73,33.7 41.17,70.13l-29.41 -2145.64 -552.89 -3.46 48.77 2051.81 -202.34 -85.6z"/>
   </g>
  </g>
 </g>
</svg>
